<svg width="455" height="316" viewBox="0 0 455 316" fill="none" xmlns="http://www.w3.org/2000/svg">
<rect x="68.0699" y="50.3611" width="318.766" height="239.905" rx="3" fill="#282828"/>
<rect x="54.788" y="37.0792" width="318.766" height="239.905" rx="3" fill="white" stroke="#282828" stroke-width="4"/>
<rect x="68.0699" y="50.3611" width="318.766" height="239.905" rx="3" fill="#282828"/>
<rect x="54.788" y="37.0792" width="318.766" height="239.905" rx="3" fill="white" stroke="#282828" stroke-width="4"/>
<path fill-rule="evenodd" clip-rule="evenodd" d="M198.399 136.694C198.399 120.188 185.02 106.809 168.515 106.809C152.009 106.809 138.63 120.188 138.63 136.694C138.63 153.199 152.009 166.578 168.515 166.578C185.02 166.578 198.399 153.199 198.399 136.694Z" stroke="#282828" stroke-width="6" stroke-linecap="square"/>
<path fill-rule="evenodd" clip-rule="evenodd" d="M231.604 157.032C231.604 121.959 203.172 93.5276 168.099 93.5276C133.027 93.5276 104.595 121.959 104.595 157.032C104.595 192.104 133.027 220.536 168.099 220.536C203.172 220.536 231.604 192.104 231.604 157.032Z" stroke="#282828" stroke-width="6" stroke-linecap="square"/>
<path d="M219.152 193.142L215.469 185.952L168.515 167.408L121.56 185.952L117.047 193.142" stroke="#282828" stroke-width="6" stroke-linecap="square"/>
<path d="M140.29 197.293L170.175 185.671L200.059 197.293" stroke="#282828" stroke-width="6" stroke-linecap="square"/>
<path d="M79.1916 252.496C79.1916 254.741 77.3714 256.562 75.126 256.562C72.8806 256.562 71.0603 254.741 71.0603 252.496C71.0603 250.25 72.8806 248.43 75.126 248.43C77.3714 248.43 79.1916 250.25 79.1916 252.496Z" fill="#4CF1D9" stroke="black"/>
<path fill-rule="evenodd" clip-rule="evenodd" d="M90.6713 256.231V248.987H89.5782V256.231H90.6713ZM83.9572 248.988V256.233H88.333V255.292H85.0503V248.988H83.9572ZM92.8963 248.987L94.9126 254.887H94.994L97.0103 248.987H98.1919L95.5848 256.231H94.3219L91.7148 248.987H92.8963ZM99.2354 248.987V256.231H103.82V255.29H100.328V253.072H103.54V252.135H100.328V249.928H103.777V248.987H99.2354Z" fill="black"/>
<rect x="283.901" y="200.614" width="63.0892" height="56.4482" fill="#F9F5EF" stroke="#282828" stroke-width="4" stroke-linecap="square"/>
<path d="M293.863 257.061V257.061C293.863 245.141 303.526 235.478 315.446 235.478V235.478C327.366 235.478 337.029 245.141 337.029 257.061V257.061" stroke="#282828" stroke-width="4" stroke-linecap="square"/>
<path fill-rule="evenodd" clip-rule="evenodd" d="M315.446 235.479C322.323 235.479 327.898 229.904 327.898 223.027C327.898 216.15 322.323 210.575 315.446 210.575C308.569 210.575 302.994 216.15 302.994 223.027C302.994 229.904 308.569 235.479 315.446 235.479Z" stroke="#282828" stroke-width="4" stroke-linecap="square"/>
<rect x="283.901" y="130.883" width="63.0892" height="56.4482" fill="#F9F5EF" stroke="#282828" stroke-width="4" stroke-linecap="square"/>
<path d="M293.863 187.332V187.332C293.863 175.411 303.526 165.748 315.446 165.748V165.748C327.366 165.748 337.029 175.411 337.029 187.332V187.332" stroke="#282828" stroke-width="4" stroke-linecap="square"/>
<path fill-rule="evenodd" clip-rule="evenodd" d="M315.446 165.749C322.323 165.749 327.898 160.174 327.898 153.297C327.898 146.42 322.323 140.845 315.446 140.845C308.569 140.845 302.994 146.42 302.994 153.297C302.994 160.174 308.569 165.749 315.446 165.749Z" stroke="#282828" stroke-width="4" stroke-linecap="square"/>
<rect x="283.901" y="61.1528" width="63.0892" height="56.4482" fill="#F9F5EF" stroke="#282828" stroke-width="4" stroke-linecap="square"/>
<path d="M293.863 117.601V117.601C293.863 105.681 303.526 96.0179 315.446 96.0179V96.0179C327.366 96.0179 337.029 105.681 337.029 117.601V117.601" stroke="#282828" stroke-width="4" stroke-linecap="square"/>
<path fill-rule="evenodd" clip-rule="evenodd" d="M315.446 96.0179C322.323 96.0179 327.898 90.443 327.898 83.5661C327.898 76.6891 322.323 71.1143 315.446 71.1143C308.569 71.1143 302.994 76.6891 302.994 83.5661C302.994 90.443 308.569 96.0179 315.446 96.0179Z" stroke="#282828" stroke-width="4" stroke-linecap="square"/>
<path fill-rule="evenodd" clip-rule="evenodd" d="M74.7109 60.3227C78.3786 60.3227 81.3518 57.3494 81.3518 53.6817C81.3518 50.014 78.3786 47.0408 74.7109 47.0408C71.0431 47.0408 68.0699 50.014 68.0699 53.6817C68.0699 57.3494 71.0431 60.3227 74.7109 60.3227Z" fill="#4CF1D9"/>
<path fill-rule="evenodd" clip-rule="evenodd" d="M97.9542 60.3226C101.622 60.3226 104.595 57.3493 104.595 53.6816C104.595 50.0139 101.622 47.0406 97.9542 47.0406C94.2865 47.0406 91.3133 50.0139 91.3133 53.6816C91.3133 57.3493 94.2865 60.3226 97.9542 60.3226Z" fill="#282828"/>
<path fill-rule="evenodd" clip-rule="evenodd" d="M121.198 60.3226C124.865 60.3226 127.839 57.3493 127.839 53.6816C127.839 50.0139 124.865 47.0406 121.198 47.0406C117.53 47.0406 114.557 50.0139 114.557 53.6816C114.557 57.3493 117.53 60.3226 121.198 60.3226Z" fill="#282828"/>
<path fill-rule="evenodd" clip-rule="evenodd" d="M383.516 233.818L400.118 245.44L383.516 257.061V233.818Z" fill="#00EB87"/>
<path fill-rule="evenodd" clip-rule="evenodd" d="M389.327 230.498V259.552L410.08 245.025L389.327 230.498ZM392.172 235.947L405.14 245.024L392.172 254.102V235.947Z" fill="black"/>
<path fill-rule="evenodd" clip-rule="evenodd" d="M344.578 285.285L356.952 311.591L327.898 314.339L344.578 285.285Z" fill="#00EB87"/>
<path fill-rule="evenodd" clip-rule="evenodd" d="M352.417 281.965L332.879 316L366.914 312.781L352.417 281.965ZM352.168 288.064L362.658 310.361L338.031 312.69L352.168 288.064Z" fill="black"/>
<path fill-rule="evenodd" clip-rule="evenodd" d="M30.7145 5.53467L43.1663 10.9591L33.6973 20.4768L30.7145 5.53467Z" fill="#00ED84"/>
<path fill-rule="evenodd" clip-rule="evenodd" d="M14.9406 71.9137L24.7785 91.1838L3.65592 92.7869L14.9406 71.9137Z" fill="#00EB87"/>
<path fill-rule="evenodd" clip-rule="evenodd" d="M29.0542 3.04456L33.03 23.7976L45.6566 10.5789L29.0542 3.04456ZM32.8532 7.88563L40.8498 11.5135L34.7682 17.8799L32.8532 7.88563Z" fill="#00EB87"/>
<path fill-rule="evenodd" clip-rule="evenodd" d="M23.5358 68.6238L7.44639 97.3854L35.6939 94.1689L23.5358 68.6238ZM23.1848 78.0821L29.0433 90.4718L15.3309 92.0811L23.1848 78.0821Z" fill="black"/>
<path fill-rule="evenodd" clip-rule="evenodd" d="M21.3354 295.135C22.1857 296.496 21.7719 298.288 20.4111 299.139C19.0503 299.989 17.2578 299.575 16.4075 298.214C15.5572 296.853 15.971 295.061 17.3318 294.211C18.6926 293.36 20.485 293.774 21.3354 295.135ZM31.2955 294.306C32.1458 295.667 31.732 297.459 30.3712 298.309C29.0104 299.16 27.2179 298.746 26.3676 297.385C25.5173 296.024 25.9311 294.232 27.2919 293.382C28.6527 292.531 30.4452 292.945 31.2955 294.306ZM35.3519 305.78C36.7127 304.93 37.1265 303.138 36.2762 301.777C35.4259 300.416 33.6334 300.002 32.2727 300.853C30.9119 301.703 30.498 303.495 31.3484 304.856C32.1987 306.217 33.9911 306.631 35.3519 305.78ZM26.3148 302.607C27.1651 303.968 26.7513 305.76 25.3905 306.61C24.0297 307.461 22.2372 307.047 21.3869 305.686C20.5366 304.325 20.9504 302.533 22.3112 301.682C23.672 300.832 25.4645 301.246 26.3148 302.607ZM40.3327 297.479C41.6935 296.629 42.1073 294.836 41.257 293.475C40.4066 292.115 38.6142 291.701 37.2534 292.551C35.8926 293.401 35.4788 295.194 36.3291 296.555C37.1794 297.916 38.9719 298.329 40.3327 297.479ZM30.4654 310.078C31.3157 311.439 30.9019 313.231 29.5411 314.081C28.1803 314.932 26.3878 314.518 25.5375 313.157C24.6872 311.796 25.101 310.004 26.4618 309.154C27.8226 308.303 29.6151 308.717 30.4654 310.078Z" fill="#00EB87"/>
<path fill-rule="evenodd" clip-rule="evenodd" d="M375.433 7.50676C374.574 9.63216 372.155 10.659 370.029 9.80029C367.904 8.94158 366.877 6.52248 367.736 4.39708C368.595 2.27168 371.014 1.24483 373.139 2.10355C375.264 2.96226 376.291 5.38137 375.433 7.50676ZM384.563 18.2983C383.705 20.4237 381.286 21.4505 379.16 20.5918C377.035 19.7331 376.008 17.314 376.867 15.1886C377.725 13.0632 380.145 12.0363 382.27 12.8951C384.395 13.7538 385.422 16.1729 384.563 18.2983ZM375.01 32.2135C377.135 33.0722 379.554 32.0453 380.413 29.9199C381.272 27.7945 380.245 25.3754 378.119 24.5167C375.994 23.658 373.575 24.6849 372.716 26.8103C371.857 28.9356 372.884 31.3548 375.01 32.2135ZM371.282 19.1287C370.423 21.2541 368.004 22.281 365.878 21.4223C363.753 20.5636 362.726 18.1444 363.585 16.019C364.444 13.8937 366.863 12.8668 368.988 13.7255C371.113 14.5842 372.14 17.0033 371.282 19.1287ZM388.292 30.5533C390.417 31.412 392.836 30.3851 393.695 28.2597C394.553 26.1343 393.527 23.7152 391.401 22.8565C389.276 21.9978 386.857 23.0246 385.998 25.15C385.139 27.2754 386.166 29.6945 388.292 30.5533ZM366.301 29.9199C365.442 32.0453 363.023 33.0722 360.898 32.2135C358.772 31.3548 357.745 28.9357 358.604 26.8103C359.463 24.6849 361.882 23.658 364.007 24.5167C366.133 25.3754 367.16 27.7945 366.301 29.9199Z" fill="#00EB87"/>
<path fill-rule="evenodd" clip-rule="evenodd" d="M442.18 192.311L449.926 203.11L436.644 206.423L442.18 192.311Z" fill="#00EB87"/>
<path fill-rule="evenodd" clip-rule="evenodd" d="M444.741 193.142L437.474 212.235L454.906 207.751L444.741 193.142ZM445.471 199.05L450.368 206.086L441.972 208.245L445.471 199.05Z" fill="black"/>
<rect x="283.901" y="200.614" width="63.0892" height="56.4482" fill="#F9F5EF" stroke="#282828" stroke-width="4" stroke-linecap="square"/>
<path d="M293.863 257.061V257.061C293.863 245.141 303.526 235.478 315.446 235.478V235.478C327.366 235.478 337.029 245.141 337.029 257.061V257.061" stroke="#282828" stroke-width="4" stroke-linecap="square"/>
<path fill-rule="evenodd" clip-rule="evenodd" d="M315.446 235.479C322.323 235.479 327.898 229.904 327.898 223.027C327.898 216.15 322.323 210.575 315.446 210.575C308.569 210.575 302.994 216.15 302.994 223.027C302.994 229.904 308.569 235.479 315.446 235.479Z" stroke="#282828" stroke-width="4" stroke-linecap="square"/>
<rect x="283.901" y="130.883" width="63.0892" height="56.4482" fill="#F9F5EF" stroke="#282828" stroke-width="4" stroke-linecap="square"/>
<path d="M293.863 187.331V187.331C293.863 175.411 303.526 165.748 315.446 165.748V165.748C327.366 165.748 337.029 175.411 337.029 187.331V187.331" stroke="#282828" stroke-width="4" stroke-linecap="square"/>
<path fill-rule="evenodd" clip-rule="evenodd" d="M315.446 165.748C322.323 165.748 327.898 160.173 327.898 153.296C327.898 146.419 322.323 140.844 315.446 140.844C308.569 140.844 302.994 146.419 302.994 153.296C302.994 160.173 308.569 165.748 315.446 165.748Z" stroke="#282828" stroke-width="4" stroke-linecap="square"/>
<rect x="283.901" y="61.1528" width="63.0892" height="56.4482" fill="#F9F5EF" stroke="#282828" stroke-width="4" stroke-linecap="square"/>
<path d="M293.863 117.601V117.601C293.863 105.681 303.526 96.0179 315.446 96.0179V96.0179C327.366 96.0179 337.029 105.681 337.029 117.601V117.601" stroke="#282828" stroke-width="4" stroke-linecap="square"/>
<path fill-rule="evenodd" clip-rule="evenodd" d="M315.446 96.0179C322.323 96.0179 327.898 90.443 327.898 83.5661C327.898 76.6891 322.323 71.1143 315.446 71.1143C308.569 71.1143 302.994 76.6891 302.994 83.5661C302.994 90.443 308.569 96.0179 315.446 96.0179Z" stroke="#282828" stroke-width="4" stroke-linecap="square"/>
<path fill-rule="evenodd" clip-rule="evenodd" d="M74.7109 60.3226C78.3786 60.3226 81.3518 57.3493 81.3518 53.6816C81.3518 50.0139 78.3786 47.0406 74.7109 47.0406C71.0431 47.0406 68.0699 50.0139 68.0699 53.6816C68.0699 57.3493 71.0431 60.3226 74.7109 60.3226Z" fill="#4CF1D9"/>
<path fill-rule="evenodd" clip-rule="evenodd" d="M97.9543 60.3226C101.622 60.3226 104.595 57.3493 104.595 53.6816C104.595 50.0139 101.622 47.0406 97.9543 47.0406C94.2866 47.0406 91.3133 50.0139 91.3133 53.6816C91.3133 57.3493 94.2866 60.3226 97.9543 60.3226Z" fill="#282828"/>
<path fill-rule="evenodd" clip-rule="evenodd" d="M121.198 60.3226C124.865 60.3226 127.839 57.3493 127.839 53.6816C127.839 50.0139 124.865 47.0406 121.198 47.0406C117.53 47.0406 114.557 50.0139 114.557 53.6816C114.557 57.3493 117.53 60.3226 121.198 60.3226Z" fill="#282828"/>
</svg>
