<?xml version="1.0" encoding="UTF-8"?>
<svg width="157px" height="44px" viewBox="0 0 157 44" version="1.1" xmlns="http://www.w3.org/2000/svg" xmlns:xlink="http://www.w3.org/1999/xlink">
    <!-- Generator: Sketch 59.1 (86144) - https://sketch.com -->
    <title>logo</title>
    <desc>Created with Sketch.</desc>
    <g id="Page-1" stroke="none" stroke-width="1" fill="none" fill-rule="evenodd">
        <g id="logo" fill="currentColor">
            <path d="M55.4302,8.92813 C58.6318,8.92813 61.1427,10.1144 63.026,11.9874 C65.0348,14.1726 66.2275,17.3568 66.1647,20.6658 L66.102,23.1632 L48.5878,23.1632 C48.5878,25.4108 49.4666,27.8458 50.9732,29.3442 C52.1032,30.468 53.6098,31.0924 55.493,31.0924 C57.439,31.0924 59.0712,30.5305 60.0756,29.4691 C60.7661,28.7823 61.2055,28.0955 61.5194,26.7844 L65.5998,26.7844 C65.2231,29.2193 63.7793,31.467 61.7705,32.8405 C60.0128,34.0268 57.8157,34.7136 55.493,34.7136 C51.9776,34.7136 49.1527,33.2776 47.2695,31.0299 C45.1979,28.6574 44.1935,25.4108 44.1935,21.9145 C44.1935,18.9801 44.6957,16.3578 46.0768,14.0478 C47.8345,11.1133 51.1615,8.92813 55.4302,8.92813 Z M48.6505,19.6669 L61.8333,19.6669 C61.8333,17.8563 61.3311,15.9832 60.3267,14.6721 C59.2595,13.2985 57.6274,12.4245 55.4302,12.4245 C50.9732,12.4245 48.7761,16.0457 48.6505,19.6669 Z M80.3519,8.99057 C83.3651,8.99057 85.7505,9.98952 87.2571,11.6128 C89.6425,13.9853 90.8353,17.7314 90.8353,21.7896 C90.8353,26.0352 89.5798,29.9061 87.0688,32.2786 C85.4366,33.7771 83.1767,34.776 80.2891,34.776 C77.6525,34.776 74.451,33.5273 73.1328,31.2797 L73.1328,43.7042 L68.9896,43.7042 L68.9896,9.61491 L72.1911,9.61491 L72.9444,12.7991 C74.3883,10.3641 77.5898,8.99057 80.3519,8.99057 Z M79.6613,31.3421 C85.1855,31.3421 86.6294,26.4098 86.6294,21.9145 C86.6294,17.4192 85.1855,12.4869 79.6613,12.4869 C77.8409,12.4869 76.6482,13.2361 75.6438,14.1102 C73.5722,15.8584 72.8817,18.8552 72.8817,21.9145 C72.8817,24.9738 73.5722,27.9082 75.6438,29.7188 C76.6482,30.5929 77.8409,31.3421 79.6613,31.3421 Z M105.022,8.92813 C108.224,8.92813 110.735,10.1144 112.618,11.9874 C114.627,14.1726 115.82,17.3568 115.757,20.6658 L115.694,23.1632 L98.1799,23.1632 C98.1799,25.4108 99.0588,27.8458 100.565,29.3442 C101.695,30.468 103.202,31.0924 105.085,31.0924 C107.031,31.0924 108.663,30.5305 109.668,29.4691 C110.358,28.7823 110.798,28.0955 111.112,26.7844 L115.192,26.7844 C114.815,29.2193 113.371,31.467 111.363,32.8405 C109.605,34.0268 107.408,34.7136 105.085,34.7136 C101.57,34.7136 98.7449,33.2776 96.8617,31.0299 C94.7901,28.6574 93.7857,25.4108 93.7857,21.9145 C93.7857,18.9801 94.2879,16.3578 95.6689,14.0478 C97.4266,11.1133 100.754,8.92813 105.022,8.92813 Z M98.2427,19.6669 L111.425,19.6669 C111.425,17.8563 110.923,15.9832 109.919,14.6721 C108.852,13.2985 107.22,12.4245 105.022,12.4245 C100.565,12.4245 98.3683,16.0457 98.2427,19.6669 Z M129.818,8.92813 C133.02,8.92813 135.531,10.1144 137.414,11.9874 C139.423,14.1726 140.616,17.3568 140.553,20.6658 L140.49,23.1632 L122.976,23.1632 C122.976,25.4108 123.855,27.8458 125.361,29.3442 C126.491,30.468 127.998,31.0924 129.881,31.0924 C131.827,31.0924 133.459,30.5305 134.464,29.4691 C135.154,28.7823 135.594,28.0955 135.908,26.7844 L139.988,26.7844 C139.611,29.2193 138.168,31.467 136.159,32.8405 C134.401,34.0268 132.204,34.7136 129.881,34.7136 C126.366,34.7136 123.541,33.2776 121.658,31.0299 C119.586,28.6574 118.582,25.4108 118.582,21.9145 C118.582,18.9801 119.084,16.3578 120.465,14.0478 C122.223,11.1133 125.55,8.92813 129.818,8.92813 Z M123.039,19.6669 L136.222,19.6669 C136.222,17.8563 135.719,15.9832 134.715,14.6721 C133.648,13.2985 132.016,12.4245 129.818,12.4245 C125.361,12.4245 123.164,16.0457 123.039,19.6669 Z M157,12.7366 L147.521,16.7324 L147.521,34.1517 L143.378,34.1517 L143.378,9.61491 L146.579,9.61491 L147.333,12.7991 L156.058,9.73978 L157,12.7366 Z M27.621,29.6564 L32.2035,29.6564 L32.2035,34.2141 L27.621,34.2141 L27.621,29.6564 Z M27.621,9.55248 L32.2035,9.55248 L32.2035,14.1102 L27.621,14.1102 L27.621,9.55248 Z M38.4182,9.55248 L43.0008,9.55248 L43.0008,14.1102 L38.4182,14.1102 L38.4182,9.55248 Z M16.8864,9.55248 L21.469,9.55248 L21.469,14.1102 L16.8864,14.1102 L16.8864,9.55248 Z M33.0196,19.6044 L37.6022,19.6044 L37.6022,24.1622 L33.0196,24.1622 L33.0196,19.6044 Z M22.2223,19.6044 L26.8049,19.6044 L26.8049,24.1622 L22.2223,24.1622 L22.2223,19.6044 Z M8.34906,0 L12.9316,0 L12.9316,4.55772 L8.34906,4.55772 L8.34906,0 Z M0,0 L4.14314,0 L4.14314,34.0892 L0,34.0892 L0,0 Z M8.53739,9.55248 L12.6805,9.55248 L12.6805,34.1517 L8.53739,34.1517 L8.53739,9.55248 Z" id="Shape"></path>
        </g>
    </g>
</svg>