<?xml version="1.0" encoding="UTF-8"?>
<svg width="80px" height="78px" viewBox="0 0 80 78" version="1.1" xmlns="http://www.w3.org/2000/svg" xmlns:xlink="http://www.w3.org/1999/xlink">
    <g id="Page-1" stroke="none" stroke-width="1" fill="none" fill-rule="evenodd">
        <g id="tokenstaked-1" fill="currentColor">
            <g id="Group">
                <rect id="Rectangle" fill-rule="nonzero" x="28.0555" y="26.25" width="5.97222" height="6.25"></rect>
                <rect id="Rectangle" fill-rule="nonzero" x="28.0555" y="36.25" width="5.97222" height="6.25"></rect>
                <rect id="Rectangle" fill-rule="nonzero" x="28.0555" y="46.25" width="5.97222" height="6.25"></rect>
                <rect id="Rectangle" fill-rule="nonzero" x="37.6111" y="31.25" width="5.97223" height="6.25"></rect>
                <rect id="Rectangle" fill-rule="nonzero" x="37.6111" y="41.25" width="5.97223" height="6.25"></rect>
                <path d="M74.5841,36.3586 L74.5841,30.5784 C74.5841,24.6415 69.6981,19.8288 63.6708,19.8288 C57.6436,19.8288 52.7576,24.6415 52.7576,30.5784 L52.7576,36.3586 L48.1905,36.3586 L48.1905,67.0642 L52.0407,67.0642 L39.6139,72.0598 L15.9022,62.3302 L6.10421,38.3463 L16.1677,15.2517 L40.0653,5.4698 L65.025,16.2194 C65.9029,16.653 66.9521,16.574 67.7527,16.0139 C68.5534,15.4538 68.9749,14.5041 68.8485,13.5449 C68.7222,12.5856 68.0686,11.7733 67.1493,11.4331 L41.0478,0.21269 C40.3782,-0.0709 39.6197,-0.0709 38.9501,0.21269 L13.2204,10.8054 C12.5815,11.0584 12.0674,11.5461 11.7865,12.1654 L0.79363,37.274 C0.51329,37.926 0.51329,38.6621 0.79363,39.314 L11.4148,65.1549 C11.6784,65.8039 12.1947,66.3219 12.8486,66.5935 L38.6049,77.2907 C38.9324,77.4282 39.2846,77.5000076 39.6405,77.5000076 C39.9768,77.5008 40.3102,77.4387 40.623,77.3169 L66.1403,67.0642 L79.4167,67.0642 L79.4167,36.3586 L74.5841,36.3586 Z M58.0682,30.5784 C58.0682,27.5305 60.5766,25.0597 63.6708,25.0597 C66.7651,25.0597 69.2735,27.5305 69.2735,30.5784 L69.2735,36.3586 L58.1744,36.3586 L58.0682,30.5784 Z M53.5011,61.9641 L73.9999,61.9641 L74.053,41.5895 L53.5011,41.5895 L53.5011,61.9641 Z" id="Shape"></path>
                <rect id="Rectangle" fill-rule="nonzero" x="60.3055" y="50" width="5.97223" height="6.25"></rect>
            </g>
        </g>
    </g>
</svg>