<svg id="Capa_1" enable-background="new 0 0 511.994 511.994" height="512" viewBox="0 0 511.994 511.994" width="512" xmlns="http://www.w3.org/2000/svg"><g><path d="m258.127 439.85c15.003 0 28.854-8.76 35.288-22.316 1.776-3.742.183-8.215-3.56-9.991-3.739-1.775-8.215-.182-9.991 3.56-3.964 8.351-12.496 13.748-21.737 13.748-9.24 0-17.772-5.396-21.736-13.748-1.776-3.742-6.251-5.334-9.991-3.56-3.742 1.776-5.336 6.249-3.56 9.991 6.434 13.556 20.285 22.316 35.287 22.316z"/><path d="m205.889 363.025c0-10.39-5.673-18.843-12.646-18.843s-12.645 8.453-12.645 18.843 5.672 18.843 12.645 18.843 12.646-8.453 12.646-18.843z"/><path d="m335.657 363.025c0-10.39-5.673-18.843-12.646-18.843s-12.645 8.453-12.645 18.843 5.672 18.843 12.645 18.843 12.646-8.453 12.646-18.843z"/><path d="m421.384 169.898c-8.53-.085-18.414 4.633-29.498 13.916.931-8.613-.246-15.581-3.526-20.799-2.865-4.558-8.751-9.992-20.514-9.992-17.004 0-30.173 10.187-39.533 21.442-.833-5.553-2.574-10.088-5.214-13.561-3.921-5.156-9.669-7.881-16.624-7.881-13.949 0-25.109 12.058-36.31 26.505-4.619-2.646-11.496-6.275-19.664-9.615-3.509-1.437-7.084-2.745-10.635-3.89-12.737-4.096-24.702-5.881-35.548-5.303-.04.002-.101.006-.154.01-.083.002-.165.006-.247.011-1.562.096-3.143.242-4.726.438-18.874 2.4-33.711 12.108-44.19 28.89-11.723-4.178-36.667-10.18-55.636 5.21-25.615 20.783-28.515 71.939-8.666 152.04-6.627 6.841-10.718 16.153-10.718 26.409 0 18.505 13.308 33.951 30.854 37.293.194 6.144.436 12.278.75 18.387.635 12.282 3.797 24.005 9.397 34.845 1.332 2.579 3.953 4.059 6.669 4.059 1.159 0 2.336-.27 3.437-.838 3.681-1.901 5.122-6.426 3.221-10.106-4.614-8.931-7.22-18.599-7.743-28.732-1.333-25.923-1.557-52.246-.698-78.355 18.011-2.371 32.773-13.706 42.985-33.151 3.6-6.854 6.078-13.679 7.737-19.256 17.892 13.808 41.876 23.391 68.941 27.373 31.047 4.568 62.699 1.461 89.121-8.747 16.821-6.499 34.728-19.06 51.031-34.056 5.132 48.591 6.488 97.694 4.002 146.192-1.869 36.392-30.742 65.128-67.164 66.843-42.733 2.02-86.07 2.02-128.802 0-15.855-.749-30.588-6.588-42.604-16.884-3.146-2.695-7.881-2.33-10.575.816-2.695 3.145-2.33 7.88.815 10.575 14.574 12.487 32.437 19.568 51.655 20.476 21.604 1.021 43.354 1.531 65.11 1.531 21.751 0 43.509-.51 65.107-1.531 44.16-2.08 79.171-36.927 81.438-81.058.313-6.119.558-12.248.752-18.383 17.546-3.342 30.854-18.789 30.854-37.293 0-18.714-13.603-34.299-31.435-37.409-1.059-22.495-2.92-44.967-5.565-67.315 20.605-21.88 36.821-46.34 41.889-64.288 3.103-10.988 2.259-19.728-2.509-25.977-4.384-5.749-10.357-8.806-17.267-8.841zm-326.402 203.831c0-10.176 6.647-18.823 15.823-21.838-.445 14.491-.557 29.04-.338 43.551-9.001-3.113-15.485-11.668-15.485-21.713zm326.292 0c0 10.049-6.489 18.606-15.495 21.716.218-14.499.102-29.028-.345-43.559 9.185 3.009 15.84 11.66 15.84 21.843zm5.453-173.088c-8.696 30.801-58.482 86.8-97.479 101.867-23.698 9.156-53.419 12.035-81.531 7.899-29.169-4.292-54.121-15.543-70.258-31.68-2.005-2.003-4.965-2.7-7.654-1.814-2.689.887-4.65 3.219-5.069 6.021-.021.139-2.154 14.033-9.331 27.543-8.892 16.74-21.239 25.241-36.698 25.276-.035 0-.571-.008-.751-.008-4.941 0-9.66.959-13.993 2.684-21.039-87.892-9.193-120.052 4.807-131.462 17.623-14.364 45.92-.871 46.188-.74 3.667 1.802 8.102.338 9.975-3.291 8.278-16.044 20.104-24.835 36.126-26.873 1.208-.149 2.434-.264 3.646-.341.163-.005.325-.015.488-.026 8.996-.466 19.121 1.083 30.076 4.606 3.181 1.026 6.394 2.202 9.554 3.496 6.518 2.665 12.105 5.517 16.189 7.786-9.612 12.64-19.546 24.782-30.084 28.673-3.885 1.435-5.872 5.748-4.437 9.634 1.435 3.885 5.742 5.872 9.634 4.438 15.87-5.861 28.21-22.225 40.144-38.051 10.474-13.89 21.304-28.253 30.207-28.253 2.812 0 3.943.989 4.681 1.957 4.645 6.098 2.604 23.828-.328 34.464-1.07 3.86 1.083 7.876 4.889 9.125 3.809 1.25 7.925-.716 9.351-4.459.156-.411 15.967-41.087 42.779-41.087 5.941 0 7.301 2.159 7.813 2.971 4.38 6.955-1.146 25.73-6.466 36.834-1.661 3.454-.451 7.605 2.807 9.625 3.256 2.019 7.514 1.258 9.869-1.766 7.832-10.057 27.747-30.79 39.393-30.79h.048c1.576.008 3.453.363 5.419 2.941 1.672 2.196 1.672 6.862-.004 12.801z"/><path d="m66.25 63.124h19.663l14.145 52.539c.867 3.221 3.757 5.482 7.092 5.549.051.001.101.001.151.001 3.272 0 6.176-2.126 7.157-5.26l31.584-100.952h44.807c4.143 0 7.5-3.358 7.5-7.5s-3.357-7.5-7.5-7.5h-50.319c-3.279 0-6.179 2.131-7.158 5.26l-25.532 81.609-8.937-33.195c-.882-3.275-3.851-5.55-7.242-5.55h-25.411c-4.143 0-7.5 3.358-7.5 7.5s3.358 7.499 7.5 7.499z"/><path d="m174.408 83.707c-12.572 17.964-20.076 27.79-24.108 33.068-4.925 6.449-6.768 8.862-5.46 13.113.758 2.462 2.627 4.352 5.129 5.186 1.016.339 2.127.709 17.282.709 6.02 0 14.253-.059 25.575-.201 4.142-.052 7.457-3.452 7.404-7.594-.051-4.11-3.399-7.406-7.497-7.406-.032 0-.064 0-.096 0-9.197.115-18.99.177-26.53.182 4.471-5.929 11.116-14.92 20.59-28.457 4.956-7.082 8.183-13.748 9.589-19.814.057-.245.101-.492.133-.741l.393-3.066c.04-.316.061-.634.061-.953 0-15.319-12.463-27.782-27.782-27.782-13.245 0-24.71 9.423-27.261 22.405-.799 4.064 1.849 8.007 5.913 8.805 4.068.799 8.007-1.849 8.806-5.914 1.172-5.966 6.447-10.296 12.542-10.296 6.906 0 12.551 5.505 12.775 12.358l-.273 2.136c-1.023 4.113-3.439 8.908-7.185 14.262z"/><path d="m487.524 69.702c22.15-28.216 19.737-37.305 15.003-42.039-4.737-4.738-13.833-7.154-42.051 15-5.66-2.017-11.727-2.905-17.856-2.506-4.134.269-7.267 3.838-6.997 7.972s3.852 7.263 7.972 6.996c8.498-.554 16.825 2.584 22.85 8.609 1.251 1.251 2.358 2.592 3.339 3.995-5.895 6.979-12.656 14.314-19.795 21.453-7.141 7.142-14.477 13.902-21.454 19.795-1.403-.98-2.742-2.087-3.993-3.339-10.904-10.905-11.7-28.048-1.85-39.878 2.65-3.183 2.219-7.912-.965-10.563-3.181-2.65-7.911-2.219-10.563.964-10.474 12.579-12.954 29.139-7.744 43.571-22.105 28.174-19.691 37.259-14.957 41.994 1.747 1.746 4.083 3.179 7.756 3.178 6.284-.001 16.476-4.197 34.292-18.186 4.835 1.715 9.907 2.576 14.981 2.576 11.429 0 22.857-4.35 31.559-13.051 12.564-12.562 16.052-30.814 10.473-46.541zm.691-27.733c-1.706 3.252-4.488 7.769-8.846 13.682-.739-.861-1.503-1.708-2.319-2.523-.81-.81-1.657-1.573-2.52-2.312 5.915-4.36 10.433-7.142 13.685-8.847zm-85.445 85.445c1.705-3.252 4.487-7.769 8.846-13.683.739.857 1.503 1.7 2.317 2.513.815.815 1.662 1.58 2.523 2.319-5.915 4.361-10.434 7.145-13.686 8.851zm63.673-21.776c-5.833 5.833-13.515 8.717-21.178 8.659 5.092-4.557 10.262-9.442 15.329-14.509 5.066-5.066 9.951-10.235 14.509-15.328.057 7.663-2.826 15.344-8.66 21.178z"/><path d="m228.478 105.033c3.87 1.473 8.204-.468 9.679-4.339l5.918-15.538h39.693l5.856 15.517c1.133 3.003 3.987 4.854 7.018 4.854.88 0 1.775-.156 2.647-.485 3.875-1.462 5.831-5.79 4.368-9.665l-30.866-81.787c-.025-.069-.053-.137-.081-.206-1.452-3.531-4.856-5.811-8.674-5.811-.004 0-.009 0-.012 0-3.822.005-7.226 2.294-8.672 5.832-.022.055-.044.111-.065.167l-31.148 81.783c-1.475 3.871.468 8.204 4.339 9.678zm35.534-72.224 14.095 37.348h-28.319z"/><path d="m17.108 42.823c1.465 1.465 3.385 2.197 5.304 2.197s3.839-.732 5.304-2.197l3.61-3.61 3.61 3.61c1.465 1.465 3.384 2.197 5.304 2.197 1.919 0 3.839-.732 5.304-2.197 2.929-2.929 2.929-7.677 0-10.606l-3.61-3.61 3.61-3.61c2.929-2.929 2.929-7.678 0-10.606-2.93-2.929-7.678-2.929-10.607 0l-3.61 3.61-3.61-3.61c-2.93-2.928-7.678-2.929-10.607 0s-2.929 7.677 0 10.606l3.61 3.61-3.61 3.61c-2.93 2.928-2.93 7.677-.002 10.606z"/><path d="m502.806 146.307c-2.929-2.928-7.678-2.929-10.606 0l-3.611 3.611-3.611-3.611c-2.928-2.929-7.677-2.928-10.606 0-2.929 2.929-2.929 7.678.001 10.607l3.61 3.61-3.61 3.61c-2.93 2.929-2.93 7.677-.001 10.607 1.465 1.465 3.384 2.197 5.304 2.197 1.919 0 3.839-.732 5.303-2.197l3.611-3.611 3.611 3.611c1.464 1.464 3.384 2.197 5.303 2.197s3.839-.732 5.304-2.197c2.929-2.929 2.929-7.678-.001-10.607l-3.61-3.61 3.61-3.61c2.927-2.93 2.927-7.678-.001-10.607z"/><path d="m321.537 136.036c1.465 1.465 3.384 2.197 5.304 2.197 1.919 0 3.839-.732 5.303-2.197l3.611-3.611 3.611 3.611c1.464 1.464 3.384 2.197 5.303 2.197s3.839-.732 5.304-2.197c2.929-2.929 2.929-7.678-.001-10.607l-3.61-3.61 3.61-3.61c2.93-2.929 2.93-7.678.001-10.607-2.93-2.928-7.679-2.929-10.606 0l-3.611 3.611-3.611-3.611c-2.928-2.929-7.677-2.928-10.606 0-2.929 2.929-2.929 7.678.001 10.607l3.61 3.61-3.61 3.61c-2.932 2.929-2.932 7.678-.003 10.607z"/><path d="m64.872 307.704h-14.458v-14.459c0-4.142-3.357-7.5-7.5-7.5s-7.5 3.358-7.5 7.5v14.459h-14.459c-4.143 0-7.5 3.358-7.5 7.5s3.357 7.5 7.5 7.5h14.459v14.459c0 4.142 3.357 7.5 7.5 7.5s7.5-3.358 7.5-7.5v-14.459h14.458c4.143 0 7.5-3.358 7.5-7.5s-3.357-7.5-7.5-7.5z"/><path d="m55.024 207.488c27.645 0 50.136-22.491 50.136-50.136s-22.491-50.136-50.136-50.136c-27.646 0-50.137 22.491-50.137 50.136s22.491 50.136 50.137 50.136zm0-85.273c19.374 0 35.136 15.762 35.136 35.136s-15.762 35.136-35.136 35.136-35.137-15.762-35.137-35.136 15.762-35.136 35.137-35.136z"/><path d="m55.024 164.851h11.226c4.143 0 7.5-3.358 7.5-7.5s-3.357-7.5-7.5-7.5h-3.727v-13.95c0-4.142-3.357-7.5-7.5-7.5s-7.5 3.358-7.5 7.5v21.45c.001 4.142 3.358 7.5 7.501 7.5z"/><path d="m353.05 51.106h15.565l-12.189 25.355c-1.794 3.733-.223 8.214 3.51 10.009 1.048.504 2.155.742 3.245.742 2.792 0 5.474-1.567 6.765-4.252l17.357-36.105c1.117-2.324.962-5.059-.411-7.242-1.372-2.183-3.77-3.508-6.349-3.508h-15.565l12.189-25.355c1.794-3.733.223-8.214-3.51-10.009-3.73-1.794-8.215-.223-10.01 3.51l-17.357 36.105c-1.117 2.324-.962 5.059.411 7.242 1.372 2.183 3.77 3.508 6.349 3.508z"/><path d="m495.635 251.044c3.043-4.08 4.846-9.135 4.846-14.604 0-13.497-10.98-24.478-24.477-24.478h-21.433c-4.143 0-7.5 3.358-7.5 7.5v33.975.055 39.753c0 1.995.795 3.908 2.208 5.315 1.406 1.4 3.309 2.185 5.292 2.185h.033s19.709-.088 25.142-.088c15.087 0 27.36-12.274 27.36-27.36.002-9.164-4.533-17.285-11.471-22.253zm-19.63-24.081c5.226 0 9.477 4.252 9.477 9.478s-4.251 9.477-9.477 9.477c-1.582 0-4.568.009-7.819.02h-6.114v-18.975zm3.742 58.695c-3.228 0-11.484.031-17.675.056v-24.752c1.973-.008 4.12-.016 6.163-.023h11.512c6.815 0 12.36 5.545 12.36 12.36.001 6.814-5.544 12.359-12.36 12.359z"/></g></svg>