<?xml version="1.0" encoding="UTF-8"?>
<svg width="83px" height="83px" viewBox="0 0 83 83" version="1.1" xmlns="http://www.w3.org/2000/svg" xmlns:xlink="http://www.w3.org/1999/xlink">
    <!-- Generator: Sketch 59.1 (86144) - https://sketch.com -->
    <title>token</title>
    <desc>Created with Sketch.</desc>
    <g id="Page-1" stroke="none" stroke-width="1" fill="none" fill-rule="evenodd">
        <g id="token" fill="currentColor" fill-rule="nonzero">
            <path d="M35.3195,27.9028 L29.1389,27.9028 L29.1389,34.0834 L35.3195,34.0834 L35.3195,27.9028 Z M35.3195,37.7917 L29.1389,37.7917 L29.1389,43.9723 L35.3195,43.9723 L35.3195,37.7917 Z M52.625,37.7917 L58.8056,37.7917 L58.8056,43.9723 L52.625,43.9723 L52.625,37.7917 Z M35.3195,48.9167 L29.1389,48.9167 L29.1389,55.0973 L35.3195,55.0973 L35.3195,48.9167 Z M41.5,32.8473 L47.6806,32.8473 L47.6806,39.0278 L41.5,39.0278 L41.5,32.8473 Z M47.6806,42.7362 L41.5,42.7362 L41.5,48.9167 L47.6806,48.9167 L47.6806,42.7362 Z" id="Shape"></path>
            <path d="M82.1016,40.7332 L71.4212,14.094 C71.1551,13.4212 70.6318,12.8809 69.9661,12.5913 L42.7848,0.92473 C42.1004,0.63626 41.3277,0.63626 40.6432,0.92473 L13.8463,12.0449 C13.1806,12.3157 12.6482,12.8356 12.3637,13.4929 L0.91461,39.8862 C0.63963,40.5702 0.63963,41.3333 0.91461,42.0173 L11.897,69.3395 C12.1756,70.0071 12.7087,70.5376 13.3796,70.8149 L40.1765,82.0716 C40.5119,82.2249 40.8782,82.2997 41.2473,82.291684 C41.6042,82.2946 41.9586,82.2296 42.2906,82.099 L69.0875,71.1701 C69.7584,70.8928 70.2915,70.3623 70.5701,69.6947 L82.0192,42.9189 C82.3513,42.2335 82.3812,41.4414 82.1016,40.7332 Z M66.0124,66.4434 L41.3022,76.4706 L16.7566,66.0062 L6.43324,41.0064 L16.9763,16.6623 L41.6866,6.41649 L66.7812,17.3454 L76.6104,41.9353 L66.0124,66.4434 Z" id="Shape"></path>
        </g>
    </g>
</svg>